<svg width="32" height="32" viewBox="0 0 32 32" xmlns="http://www.w3.org/2000/svg">
    <g fill="#287DB4" fill-rule="nonzero">
        <path d="M30.118 11.932A1.881 1.881 0 0 0 32 10.056V7.628c0-.77-.463-1.453-1.18-1.74L16.706.138A1.88 1.88 0 0 0 15.3.134L1.18 5.888C.463 6.175 0 6.858 0 7.628v2.428c0 1.034.844 1.876 1.882 1.876h1.13V26.06h-1.13A1.881 1.881 0 0 0 0 27.936v2.188C0 31.16.844 32 1.882 32h28.236A1.881 1.881 0 0 0 32 30.124v-2.188a1.881 1.881 0 0 0-1.882-1.875h-1.13V11.93h1.13zm0 16.004c0 2.238.006 2.188 0 2.188H1.882v-2.188h28.236zM4.894 26.061V11.93h2.133v14.13H4.894zm4.016 0V11.93h4.141v14.13H8.91zm6.023 0V11.93h2.134v14.13h-2.134zm4.016 0V11.93h4.141v14.13H18.95zm6.024 0V11.93h2.133v14.13h-2.133zM1.883 10.056c0-2.616-.003-2.427.006-2.43L16 1.875l14.111 5.75c.01.003.007-.18.007 2.43H1.882z"/>
        <path d="M16 4.055a.94.94 0 0 0-.941.937v2a.94.94 0 0 0 .941.939.94.94 0 0 0 .941-.938v-2A.94.94 0 0 0 16 4.054z"/>
    </g>
</svg>
