<svg width="32" height="32" viewBox="0 0 32 32" xmlns="http://www.w3.org/2000/svg">
    <g fill="#007A7C" fill-rule="nonzero">
        <path d="M24.71 16.393a19.101 19.101 0 0 0-1.426-2.072l1.036-.027a.875.875 0 0 0 .728-1.323l-.054-.092c-.793-1.327-1.677-2.376-2.702-3.205a9.745 9.745 0 0 0-2.706-1.548l.28-.14a.875.875 0 0 0 .211-1.416l-.259-.247C17.742 4.34 14.632 1.368 8.51 2.544 7.843 1.714 6.365 0 3.33 0A.938.938 0 0 0 2.4.83c-.123 1.07-.005 2.165.331 3.086.226.616.538 1.137.922 1.545-1.104 1.421-1.839 2.865-2.238 4.391-.396 1.514-.397 2.858-.363 4.105a9.316 9.316 0 0 1-.677 3.73l-.218.546a2.187 2.187 0 0 0 .979 2.73l1.514.83a2.198 2.198 0 0 0 2.95-.83c.029-.06.522-.877.502-.926.118-.395.403-.731.782-.922 1.6-.807 2.829-2.006 3.554-3.425 1.197 2.288.515 4.092-.31 6.275-.983 2.597-2.097 5.54.102 9.549.165.3.48.486.822.486H24.6C28.713 31.782 32 28.355 32 24.187c0-4.132-3.225-7.524-7.29-7.794zM11.623 30.125c-1.444-2.997-.616-5.186.258-7.496.521-1.379 1.06-2.805 1.077-4.376.018-1.792-.66-3.508-2.073-5.246a.937.937 0 0 0-1.651.435c-.386 2.272-2.167 3.48-3.195 3.999a3.423 3.423 0 0 0-1.698 1.947l-.368.643a.315.315 0 0 1-.421.119l-1.515-.83a.312.312 0 0 1-.14-.39l.219-.546c.579-1.448.852-2.954.81-4.478-.053-1.969-.126-4.666 2.77-7.976a.937.937 0 0 0-.286-1.456c-.665-.333-1.114-1.345-1.176-2.525 1.625.278 2.423 1.28 2.883 1.856.275.345.652.818 1.292.675 4.818-1.077 7.386.687 9.338 2.469l-1.3.65c-.835.417-.614 1.665.314 1.77 2.323.263 4.19 1.28 5.67 3.1l-1.215.031c-.828.022-1.223 1.029-.63 1.608l.01.01c.283.276 1.115 1.13 1.988 2.423-3.541.741-6.209 3.888-6.209 7.646a7.797 7.797 0 0 0 2.741 5.938h-7.493zm12.565 0a5.944 5.944 0 0 1-5.938-5.938 5.944 5.944 0 0 1 5.938-5.937 5.944 5.944 0 0 1 5.937 5.938 5.944 5.944 0 0 1-5.937 5.937z"/>
        <circle transform="rotate(-4.069 6.37 9.692)" cx="6.369" cy="9.692" r="1"/>
        <path d="m25.1 23.56-.33-.12v-2.02a.86.86 0 0 1 .304.18.625.625 0 0 0 .939-.825c-.208-.238-.637-.537-1.244-.642v-.32a.625.625 0 1 0-1.25 0v.388a3.55 3.55 0 0 0-.116.033c-.741.223-1.294.856-1.444 1.65-.137.73.1 1.436.618 1.843.245.192.543.368.942.55v2.64c-.282-.04-.494-.135-.831-.356a.625.625 0 0 0-.685 1.046c.593.388 1.012.524 1.516.568v.387a.625.625 0 1 0 1.25 0v-.447c1.039-.264 1.704-1.15 1.851-2.025.19-1.126-.421-2.143-1.52-2.53zm-1.58-.696a2.222 2.222 0 0 1-.172-.12c-.147-.117-.21-.363-.16-.628a.931.931 0 0 1 .331-.56v1.308zm1.868 3.018a1.292 1.292 0 0 1-.619.897V24.77c.677.285.66.867.619 1.111z"/>
    </g>
</svg>
