<svg width="22" height="22" viewBox="0 0 22 22" xmlns="http://www.w3.org/2000/svg">
    <path d="M18.743 18.748h-3.258v-5.105c0-1.218-.024-2.784-1.697-2.784-1.699 0-1.958 1.324-1.958 2.694v5.195H8.572V8.25h3.13v1.43h.041c.438-.824 1.501-1.695 3.09-1.695 3.3 0 3.911 2.173 3.911 5v5.763zM4.893 6.814A1.89 1.89 0 0 1 3 4.92a1.892 1.892 0 1 1 1.891 1.893zm1.633 11.934H3.259V8.25h3.267v10.498zM20.373 0H1.623C.726 0 0 .71 0 1.585v18.83C0 21.291.726 22 1.623 22H20.37c.897 0 1.63-.709 1.63-1.585V1.585C22 .71 21.267 0 20.37 0h.003z" fill="#FFF" fill-rule="nonzero"/>
</svg>
