<svg width="26" height="19" viewBox="0 0 26 19" xmlns="http://www.w3.org/2000/svg">
    <g fill="#FFF" fill-rule="nonzero">
        <path d="M7.583 3.167h17.334c.598 0 1.083-.473 1.083-1.056 0-.583-.485-1.055-1.083-1.055H7.583c-.598 0-1.083.472-1.083 1.055s.485 1.056 1.083 1.056zM24.917 8.444H7.583c-.598 0-1.083.473-1.083 1.056 0 .583.485 1.056 1.083 1.056h17.334c.598 0 1.083-.473 1.083-1.056 0-.583-.485-1.056-1.083-1.056zM24.917 15.833H7.583c-.598 0-1.083.473-1.083 1.056 0 .583.485 1.055 1.083 1.055h17.334c.598 0 1.083-.472 1.083-1.055s-.485-1.056-1.083-1.056z"/>
        <ellipse cx="2.167" cy="2.111" rx="2.167" ry="2.111"/>
        <ellipse cx="2.167" cy="9.5" rx="2.167" ry="2.111"/>
        <ellipse cx="2.167" cy="16.889" rx="2.167" ry="2.111"/>
    </g>
</svg>
