<svg width="23" height="19" viewBox="0 0 23 19" xmlns="http://www.w3.org/2000/svg">
    <path d="M22.624 2.963a9.167 9.167 0 0 1-2.59.71 4.545 4.545 0 0 0 1.983-2.495 9.316 9.316 0 0 1-2.867 1.085 4.51 4.51 0 0 0-7.685 4.109c-3.75-.177-7.07-1.979-9.295-4.7a4.42 4.42 0 0 0-.61 2.27 4.51 4.51 0 0 0 2.005 3.754 4.495 4.495 0 0 1-2.042-.565v.055a4.513 4.513 0 0 0 3.617 4.425 4.58 4.58 0 0 1-2.028.078 4.525 4.525 0 0 0 4.22 3.132 9.045 9.045 0 0 1-5.593 1.93c-.357 0-.714-.021-1.072-.061a12.829 12.829 0 0 0 6.927 2.024c8.299 0 12.831-6.87 12.831-12.82 0-.192 0-.384-.013-.577a9.107 9.107 0 0 0 2.255-2.335l-.043-.019z" fill="#FFF" fill-rule="nonzero"/>
</svg>
